# xmcd
# 
# Track frame offsets:
#     150
#     14685
#     35257
#     53108
#     66343
#     80653
#     95698
#     111096
#     128026
# 
# Disc length: 2056
# 
# Revision: 0
# Processed by: cddbd v1.5.2PL0 Copyright (c) Steve Scherf et al.
# Submitted via: fre:ac v1.0.31
# 
DISCID=78080609
DTITLE=Son Volt - Okemah And The Melody Of Riot Disc 2
DYEAR=0
DGENRE=Blues
TTITLE0=Exurbia (non-album track)
TTITLE1=Joe Citizen Blues (live)
TTITLE2=Anacostia (non-album track)
TTITLE3=Afterglow 61 (live)
TTITLE4=Gramophone (live)
TTITLE5=Ipecac (live)
TTITLE6=Bandages and Scars (live)
TTITLE7=Atmosphere (live)
TTITLE8=Medication (live)
EXTD=
EXTT0=
EXTT1=
EXTT2=
EXTT3=
EXTT4=
EXTT5=
EXTT6=
EXTT7=
EXTT8=
PLAYORDER=
